<?xml version="1.0" standalone="no"?><!DOCTYPE svg PUBLIC "-//W3C//DTD SVG 1.1//EN" "http://www.w3.org/Graphics/SVG/1.1/DTD/svg11.dtd"><svg t="1733383106878" class="icon" viewBox="0 0 1024 1024" version="1.1" xmlns="http://www.w3.org/2000/svg" p-id="1144" xmlns:xlink="http://www.w3.org/1999/xlink" width="200" height="200"><path d="M754.56 395.52a52.416 52.416 0 0 0-71.04 3.84L471.04 614.4 376.96 531.2l-4.48-3.2a53.44 53.44 0 0 0-71.68 7.68c-19.2 23.04-16.64 56.96 5.76 76.8l131.84 116.48 3.84 3.2c21.12 15.36 50.56 13.44 69.12-5.12l247.68-250.24 3.2-3.84c17.92-21.12 16.64-53.12-3.2-72.96l-4.48-4.48zM288 64c0 35.2 28.8 64 64 64h320c35.2 0 64-28.8 64-64V0h64c106.24 0 192 85.76 192 192v640c0 106.24-85.76 192-192 192h-576c-106.24 0-192-85.76-192-192V192c0-106.24 85.76-192 192-192h64v64z" p-id="1145" fill="#1296db"></path></svg>